<?xml version="1.0" encoding="utf-8"?>
 <!DOCTYPE svg PUBLIC "-//W3C//DTD SVG 20010904//EN" "http://www.w3.org/TR/2001/REC-SVG-20010904/DTD/svg10.dtd">
<svg class="Qr-item-svg" width="100%" height="100%" viewBox="-6.6 -6.6 46.2 46.2" fill="white" xmlns="http://www.w3.org/2000/svg" xmlns:xlink="http://www.w3.org/1999/xlink"><line opacity="1" x1="0.5" y1="9.5" x2="0.5" y2="10.5" stroke-width="0.5" stroke="#00000f" stroke-linecap="round"></line><line opacity="1" x1="0.5" y1="14.5" x2="0.5" y2="17.5" stroke-width="0.5" stroke="#00000f" stroke-linecap="round"></line><line opacity="1" x1="0.5" y1="18.5" x2="0.5" y2="19.5" stroke-width="0.5" stroke="#00000f" stroke-linecap="round"></line><line opacity="1" x1="0.5" y1="22.5" x2="0.5" y2="23.5" stroke-width="0.5" stroke="#00000f" stroke-linecap="round"></line><circle opacity="1" r="0.25" fill="#00000f" cx="1.5" cy="8.5"></circle><line opacity="1" x1="1.5" y1="12.5" x2="1.5" y2="13.5" stroke-width="0.5" stroke="#00000f" stroke-linecap="round"></line><line opacity="1" x1="1.5" y1="15.5" x2="1.5" y2="18.5" stroke-width="0.5" stroke="#00000f" stroke-linecap="round"></line><line opacity="1" x1="1.5" y1="19.5" x2="1.5" y2="20.5" stroke-width="0.5" stroke="#00000f" stroke-linecap="round"></line><line opacity="1" x1="1.5" y1="23.5" x2="1.5" y2="24.5" stroke-width="0.5" stroke="#00000f" stroke-linecap="round"></line><circle opacity="1" r="0.25" fill="#00000f" cx="2.5" cy="10.5"></circle><circle opacity="1" r="0.25" fill="#00000f" cx="2.5" cy="15.5"></circle><line opacity="1" x1="2.5" y1="19.5" x2="2.5" y2="20.5" stroke-width="0.5" stroke="#00000f" stroke-linecap="round"></line><circle fill="#00000f" cx="3.5" cy="3.5" r="1.5"></circle><circle fill="none" stroke-width="0.15" stroke-dasharray="0.5,0.5" stroke="#00000f" cx="3.5" cy="3.5" r="3"></circle><circle fill="#00000f" cx="6.5" cy="3.5" r="0.5"></circle><circle fill="#00000f" cx="0.5" cy="3.5" r="0.5"></circle><circle fill="#00000f" cx="3.5" cy="6.5" r="0.5"></circle><circle fill="#00000f" cx="3.5" cy="0.5" r="0.5"></circle><line opacity="1" x1="3.5" y1="10.5" x2="3.5" y2="13.5" stroke-width="0.5" stroke="#00000f" stroke-linecap="round"></line><line opacity="1" x1="3.5" y1="17.5" x2="3.5" y2="19.5" stroke-width="0.5" stroke="#00000f" stroke-linecap="round"></line><line opacity="1" x1="3.5" y1="21.5" x2="3.5" y2="24.5" stroke-width="0.5" stroke="#00000f" stroke-linecap="round"></line><circle fill="#00000f" cx="3.5" cy="29.5" r="1.5"></circle><circle fill="none" stroke-width="0.15" stroke-dasharray="0.5,0.5" stroke="#00000f" cx="3.5" cy="29.5" r="3"></circle><circle fill="#00000f" cx="6.5" cy="29.5" r="0.5"></circle><circle fill="#00000f" cx="0.5" cy="29.5" r="0.5"></circle><circle fill="#00000f" cx="3.5" cy="32.5" r="0.5"></circle><circle fill="#00000f" cx="3.5" cy="26.5" r="0.5"></circle><circle opacity="1" r="0.25" fill="#00000f" cx="4.5" cy="8.5"></circle><circle opacity="1" r="0.25" fill="#00000f" cx="4.5" cy="11.5"></circle><circle opacity="1" r="0.25" fill="#00000f" cx="4.5" cy="13.5"></circle><line opacity="1" x1="4.5" y1="17.5" x2="4.5" y2="20.5" stroke-width="0.5" stroke="#00000f" stroke-linecap="round"></line><circle opacity="1" r="0.25" fill="#00000f" cx="4.5" cy="22.5"></circle><circle opacity="1" r="0.25" fill="#00000f" cx="5.5" cy="9.5"></circle><circle opacity="1" r="0.25" fill="#00000f" cx="5.5" cy="14.5"></circle><line opacity="1" x1="5.5" y1="19.5" x2="5.5" y2="20.5" stroke-width="0.5" stroke="#00000f" stroke-linecap="round"></line><line opacity="1" x1="5.5" y1="23.5" x2="5.5" y2="24.5" stroke-width="0.5" stroke="#00000f" stroke-linecap="round"></line><circle opacity="1" r="0.25" fill="#00000f" cx="6.5" cy="8.5"></circle><circle opacity="1" r="0.25" fill="#00000f" cx="6.5" cy="10.5"></circle><circle opacity="1" r="0.25" fill="#00000f" cx="6.5" cy="12.5"></circle><circle opacity="1" r="0.25" fill="#00000f" cx="6.5" cy="14.5"></circle><circle opacity="1" r="0.25" fill="#00000f" cx="6.5" cy="16.5"></circle><circle opacity="1" r="0.25" fill="#00000f" cx="6.5" cy="18.5"></circle><circle opacity="1" r="0.25" fill="#00000f" cx="6.5" cy="20.5"></circle><circle opacity="1" r="0.25" fill="#00000f" cx="6.5" cy="22.5"></circle><circle opacity="1" r="0.25" fill="#00000f" cx="6.5" cy="24.5"></circle><line opacity="1" x1="7.5" y1="9.5" x2="7.5" y2="10.5" stroke-width="0.5" stroke="#00000f" stroke-linecap="round"></line><line opacity="1" x1="7.5" y1="12.5" x2="7.5" y2="14.5" stroke-width="0.5" stroke="#00000f" stroke-linecap="round"></line><line opacity="1" x1="7.5" y1="16.5" x2="7.5" y2="19.5" stroke-width="0.5" stroke="#00000f" stroke-linecap="round"></line><line opacity="1" x1="7.5" y1="20.5" x2="7.5" y2="21.5" stroke-width="0.5" stroke="#00000f" stroke-linecap="round"></line><line opacity="1" x1="7.5" y1="23.5" x2="7.5" y2="24.5" stroke-width="0.5" stroke="#00000f" stroke-linecap="round"></line><circle opacity="1" r="0.25" fill="#00000f" cx="8.5" cy="0.5"></circle><circle opacity="1" r="0.25" fill="#00000f" cx="8.5" cy="2.5"></circle><line opacity="1" x1="8.5" y1="4.5" x2="9.5" y2="4.5" stroke-width="0.5" stroke="#00000f" stroke-linecap="round"></line><circle opacity="1" r="0.25" fill="#00000f" cx="8.5" cy="6.5"></circle><line opacity="1" x1="8.5" y1="11.5" x2="8.5" y2="12.5" stroke-width="0.5" stroke="#00000f" stroke-linecap="round"></line><line opacity="1" x1="8.5" y1="15.5" x2="8.5" y2="17.5" stroke-width="0.5" stroke="#00000f" stroke-linecap="round"></line><circle opacity="1" r="0.25" fill="#00000f" cx="8.5" cy="19.5"></circle><line opacity="1" x1="8.5" y1="21.5" x2="8.5" y2="23.5" stroke-width="0.5" stroke="#00000f" stroke-linecap="round"></line><circle opacity="1" r="0.25" fill="#00000f" cx="8.5" cy="28.5"></circle><line opacity="1" x1="8.5" y1="31.5" x2="10.5" y2="31.5" stroke-width="0.5" stroke="#00000f" stroke-linecap="round"></line><circle opacity="1" r="0.25" fill="#00000f" cx="9.5" cy="1.5"></circle><line opacity="1" x1="9.5" y1="3.5" x2="11.5" y2="3.5" stroke-width="0.5" stroke="#00000f" stroke-linecap="round"></line><circle opacity="1" r="0.25" fill="#00000f" cx="9.5" cy="7.5"></circle><line opacity="1" x1="9.5" y1="8.5" x2="11.5" y2="8.5" stroke-width="0.5" stroke="#00000f" stroke-linecap="round"></line><circle opacity="1" r="0.25" fill="#00000f" cx="9.5" cy="16.5"></circle><circle opacity="1" r="0.25" fill="#00000f" cx="9.5" cy="18.5"></circle><circle opacity="1" r="0.25" fill="#00000f" cx="9.5" cy="20.5"></circle><line opacity="1" x1="9.5" y1="24.5" x2="10.5" y2="24.5" stroke-width="0.5" stroke="#00000f" stroke-linecap="round"></line><circle opacity="1" r="0.25" fill="#00000f" cx="9.5" cy="25.5"></circle><line opacity="1" x1="9.5" y1="26.5" x2="12.5" y2="26.5" stroke-width="0.5" stroke="#00000f" stroke-linecap="round"></line><line opacity="1" x1="9.5" y1="27.5" x2="10.5" y2="27.5" stroke-width="0.5" stroke="#00000f" stroke-linecap="round"></line><line opacity="1" x1="9.5" y1="32.5" x2="12.5" y2="32.5" stroke-width="0.5" stroke="#00000f" stroke-linecap="round"></line><line opacity="1" x1="10.5" y1="0.5" x2="13.5" y2="0.5" stroke-width="0.5" stroke="#00000f" stroke-linecap="round"></line><circle opacity="1" r="0.25" fill="#00000f" cx="10.5" cy="2.5"></circle><line opacity="1" x1="10.5" y1="5.5" x2="11.5" y2="5.5" stroke-width="0.5" stroke="#00000f" stroke-linecap="round"></line><circle opacity="1" r="0.25" fill="#00000f" cx="10.5" cy="6.5"></circle><circle opacity="1" r="0.25" fill="#00000f" cx="10.5" cy="9.5"></circle><circle opacity="1" r="0.25" fill="#00000f" cx="10.5" cy="10.5"></circle><circle opacity="1" r="0.25" fill="#00000f" cx="10.5" cy="13.5"></circle><circle opacity="1" r="0.25" fill="#00000f" cx="10.5" cy="22.5"></circle><circle opacity="1" r="0.25" fill="#00000f" cx="10.5" cy="30.5"></circle><line opacity="1" x1="11.5" y1="4.5" x2="14.5" y2="4.5" stroke-width="0.5" stroke="#00000f" stroke-linecap="round"></line><circle opacity="1" r="0.25" fill="#00000f" cx="11.5" cy="7.5"></circle><line opacity="1" x1="11.5" y1="11.5" x2="11.5" y2="12.5" stroke-width="0.5" stroke="#00000f" stroke-linecap="round"></line><circle opacity="1" r="0.25" fill="#00000f" cx="11.5" cy="15.5"></circle><line opacity="1" x1="11.5" y1="17.5" x2="11.5" y2="19.5" stroke-width="0.5" stroke="#00000f" stroke-linecap="round"></line><line opacity="1" x1="11.5" y1="21.5" x2="11.5" y2="23.5" stroke-width="0.5" stroke="#00000f" stroke-linecap="round"></line><circle opacity="1" r="0.25" fill="#00000f" cx="11.5" cy="28.5"></circle><circle opacity="1" r="0.25" fill="#00000f" cx="12.5" cy="6.5"></circle><line opacity="1" x1="12.5" y1="11.5" x2="13.5" y2="11.5" stroke-width="0.5" stroke="#00000f" stroke-linecap="round"></line><circle opacity="1" r="0.25" fill="#00000f" cx="12.5" cy="12.5"></circle><line opacity="1" x1="12.5" y1="15.5" x2="12.5" y2="17.5" stroke-width="0.5" stroke="#00000f" stroke-linecap="round"></line><line opacity="1" x1="12.5" y1="20.5" x2="12.5" y2="23.5" stroke-width="0.5" stroke="#00000f" stroke-linecap="round"></line><line opacity="1" x1="12.5" y1="24.5" x2="13.5" y2="24.5" stroke-width="0.5" stroke="#00000f" stroke-linecap="round"></line><line opacity="1" x1="12.5" y1="25.5" x2="14.5" y2="25.5" stroke-width="0.5" stroke="#00000f" stroke-linecap="round"></line><circle opacity="1" r="0.25" fill="#00000f" cx="12.5" cy="27.5"></circle><line opacity="1" x1="12.5" y1="29.5" x2="14.5" y2="29.5" stroke-width="0.5" stroke="#00000f" stroke-linecap="round"></line><circle opacity="1" r="0.25" fill="#00000f" cx="13.5" cy="1.5"></circle><circle opacity="1" r="0.25" fill="#00000f" cx="13.5" cy="2.5"></circle><line opacity="1" x1="13.5" y1="5.5" x2="16.5" y2="5.5" stroke-width="0.5" stroke="#00000f" stroke-linecap="round"></line><line opacity="1" x1="13.5" y1="8.5" x2="14.5" y2="8.5" stroke-width="0.5" stroke="#00000f" stroke-linecap="round"></line><circle opacity="1" r="0.25" fill="#00000f" cx="13.5" cy="9.5"></circle><line opacity="1" x1="13.5" y1="10.5" x2="16.5" y2="10.5" stroke-width="0.5" stroke="#00000f" stroke-linecap="round"></line><circle opacity="1" r="0.25" fill="#00000f" cx="13.5" cy="12.5"></circle><circle opacity="1" r="0.25" fill="#00000f" cx="13.5" cy="13.5"></circle><circle opacity="1" r="0.25" fill="#00000f" cx="13.5" cy="15.5"></circle><line opacity="1" x1="13.5" y1="20.5" x2="14.5" y2="20.5" stroke-width="0.5" stroke="#00000f" stroke-linecap="round"></line><circle opacity="1" r="0.25" fill="#00000f" cx="13.5" cy="23.5"></circle><circle opacity="1" r="0.25" fill="#00000f" cx="13.5" cy="26.5"></circle><circle opacity="1" r="0.25" fill="#00000f" cx="13.5" cy="30.5"></circle><line opacity="1" x1="13.5" y1="32.5" x2="14.5" y2="32.5" stroke-width="0.5" stroke="#00000f" stroke-linecap="round"></line><circle opacity="1" r="0.25" fill="#00000f" cx="14.5" cy="6.5"></circle><line opacity="1" x1="14.5" y1="7.5" x2="17.5" y2="7.5" stroke-width="0.5" stroke="#00000f" stroke-linecap="round"></line><circle opacity="1" r="0.25" fill="#00000f" cx="14.5" cy="16.5"></circle><circle opacity="1" r="0.25" fill="#00000f" cx="14.5" cy="18.5"></circle><line opacity="1" x1="14.5" y1="21.5" x2="16.5" y2="21.5" stroke-width="0.5" stroke="#00000f" stroke-linecap="round"></line><circle opacity="1" r="0.25" fill="#00000f" cx="14.5" cy="27.5"></circle><line opacity="1" x1="14.5" y1="31.5" x2="15.5" y2="31.5" stroke-width="0.5" stroke="#00000f" stroke-linecap="round"></line><circle opacity="1" r="0.25" fill="#00000f" cx="15.5" cy="1.5"></circle><line opacity="1" x1="15.5" y1="9.5" x2="16.5" y2="9.5" stroke-width="0.5" stroke="#00000f" stroke-linecap="round"></line><line opacity="1" x1="15.5" y1="12.5" x2="16.5" y2="12.5" stroke-width="0.5" stroke="#00000f" stroke-linecap="round"></line><line opacity="1" x1="15.5" y1="13.5" x2="18.5" y2="13.5" stroke-width="0.5" stroke="#00000f" stroke-linecap="round"></line><line opacity="1" x1="15.5" y1="14.5" x2="17.5" y2="14.5" stroke-width="0.5" stroke="#00000f" stroke-linecap="round"></line><line opacity="1" x1="15.5" y1="17.5" x2="15.5" y2="19.5" stroke-width="0.5" stroke="#00000f" stroke-linecap="round"></line><line opacity="1" x1="15.5" y1="23.5" x2="16.5" y2="23.5" stroke-width="0.5" stroke="#00000f" stroke-linecap="round"></line><line opacity="1" x1="15.5" y1="24.5" x2="18.5" y2="24.5" stroke-width="0.5" stroke="#00000f" stroke-linecap="round"></line><line opacity="1" x1="15.5" y1="26.5" x2="17.5" y2="26.5" stroke-width="0.5" stroke="#00000f" stroke-linecap="round"></line><circle opacity="1" r="0.25" fill="#00000f" cx="15.5" cy="28.5"></circle><circle opacity="1" r="0.25" fill="#00000f" cx="16.5" cy="6.5"></circle><line opacity="1" x1="16.5" y1="8.5" x2="17.5" y2="8.5" stroke-width="0.5" stroke="#00000f" stroke-linecap="round"></line><line opacity="1" x1="16.5" y1="11.5" x2="17.5" y2="11.5" stroke-width="0.5" stroke="#00000f" stroke-linecap="round"></line><circle opacity="1" r="0.25" fill="#00000f" cx="16.5" cy="16.5"></circle><line opacity="1" x1="16.5" y1="20.5" x2="17.5" y2="20.5" stroke-width="0.5" stroke="#00000f" stroke-linecap="round"></line><line opacity="1" x1="16.5" y1="25.5" x2="17.5" y2="25.5" stroke-width="0.5" stroke="#00000f" stroke-linecap="round"></line><line opacity="1" x1="17.5" y1="1.5" x2="18.5" y2="1.5" stroke-width="0.5" stroke="#00000f" stroke-linecap="round"></line><circle opacity="1" r="0.25" fill="#00000f" cx="17.5" cy="2.5"></circle><circle opacity="1" r="0.25" fill="#00000f" cx="17.5" cy="3.5"></circle><circle opacity="1" r="0.25" fill="#00000f" cx="17.5" cy="16.5"></circle><circle opacity="1" r="0.25" fill="#00000f" cx="17.5" cy="18.5"></circle><circle opacity="1" r="0.25" fill="#00000f" cx="17.5" cy="19.5"></circle><circle opacity="1" r="0.25" fill="#00000f" cx="17.5" cy="27.5"></circle><line opacity="1" x1="17.5" y1="31.5" x2="18.5" y2="31.5" stroke-width="0.5" stroke="#00000f" stroke-linecap="round"></line><line opacity="1" x1="17.5" y1="32.5" x2="18.5" y2="32.5" stroke-width="0.5" stroke="#00000f" stroke-linecap="round"></line><line opacity="1" x1="18.5" y1="5.5" x2="19.5" y2="5.5" stroke-width="0.5" stroke="#00000f" stroke-linecap="round"></line><circle opacity="1" r="0.25" fill="#00000f" cx="18.5" cy="6.5"></circle><circle opacity="1" r="0.25" fill="#00000f" cx="18.5" cy="7.5"></circle><line opacity="1" x1="18.5" y1="12.5" x2="21.5" y2="12.5" stroke-width="0.5" stroke="#00000f" stroke-linecap="round"></line><line opacity="1" x1="18.5" y1="16.5" x2="18.5" y2="17.5" stroke-width="0.5" stroke="#00000f" stroke-linecap="round"></line><circle opacity="1" r="0.25" fill="#00000f" cx="18.5" cy="30.5"></circle><line opacity="1" x1="19.5" y1="0.5" x2="20.5" y2="0.5" stroke-width="0.5" stroke="#00000f" stroke-linecap="round"></line><circle opacity="1" r="0.25" fill="#00000f" cx="19.5" cy="2.5"></circle><circle opacity="1" r="0.25" fill="#00000f" cx="19.5" cy="4.5"></circle><circle opacity="1" r="0.25" fill="#00000f" cx="19.5" cy="8.5"></circle><line opacity="1" x1="19.5" y1="10.5" x2="21.5" y2="10.5" stroke-width="0.5" stroke="#00000f" stroke-linecap="round"></line><circle opacity="1" r="0.25" fill="#00000f" cx="19.5" cy="13.5"></circle><line opacity="1" x1="19.5" y1="15.5" x2="19.5" y2="18.5" stroke-width="0.5" stroke="#00000f" stroke-linecap="round"></line><circle opacity="1" r="0.25" fill="#00000f" cx="19.5" cy="20.5"></circle><circle opacity="1" r="0.25" fill="#00000f" cx="19.5" cy="21.5"></circle><circle opacity="1" r="0.25" fill="#00000f" cx="19.5" cy="22.5"></circle><circle opacity="1" r="0.25" fill="#00000f" cx="19.5" cy="23.5"></circle><line opacity="1" x1="19.5" y1="24.5" x2="20.5" y2="24.5" stroke-width="0.5" stroke="#00000f" stroke-linecap="round"></line><circle opacity="1" r="0.25" fill="#00000f" cx="19.5" cy="25.5"></circle><circle opacity="1" r="0.25" fill="#00000f" cx="19.5" cy="27.5"></circle><circle opacity="1" r="0.25" fill="#00000f" cx="19.5" cy="28.5"></circle><circle opacity="1" r="0.25" fill="#00000f" cx="20.5" cy="6.5"></circle><circle opacity="1" r="0.25" fill="#00000f" cx="20.5" cy="7.5"></circle><line opacity="1" x1="20.5" y1="9.5" x2="21.5" y2="9.5" stroke-width="0.5" stroke="#00000f" stroke-linecap="round"></line><circle opacity="1" r="0.25" fill="#00000f" cx="20.5" cy="11.5"></circle><circle opacity="1" r="0.25" fill="#00000f" cx="20.5" cy="17.5"></circle><circle opacity="1" r="0.25" fill="#00000f" cx="20.5" cy="19.5"></circle><line opacity="1" x1="20.5" y1="26.5" x2="23.5" y2="26.5" stroke-width="0.5" stroke="#00000f" stroke-linecap="round"></line><line opacity="1" x1="20.5" y1="29.5" x2="22.5" y2="29.5" stroke-width="0.5" stroke="#00000f" stroke-linecap="round"></line><line opacity="1" x1="20.5" y1="32.5" x2="23.5" y2="32.5" stroke-width="0.5" stroke="#00000f" stroke-linecap="round"></line><circle opacity="1" r="0.25" fill="#00000f" cx="21.5" cy="4.5"></circle><line opacity="1" x1="21.5" y1="8.5" x2="24.5" y2="8.5" stroke-width="0.5" stroke="#00000f" stroke-linecap="round"></line><circle opacity="1" r="0.25" fill="#00000f" cx="21.5" cy="13.5"></circle><line opacity="1" x1="21.5" y1="16.5" x2="21.5" y2="18.5" stroke-width="0.5" stroke="#00000f" stroke-linecap="round"></line><line opacity="1" x1="21.5" y1="21.5" x2="24.5" y2="21.5" stroke-width="0.5" stroke="#00000f" stroke-linecap="round"></line><line opacity="1" x1="21.5" y1="25.5" x2="22.5" y2="25.5" stroke-width="0.5" stroke="#00000f" stroke-linecap="round"></line><line opacity="1" x1="21.5" y1="30.5" x2="22.5" y2="30.5" stroke-width="0.5" stroke="#00000f" stroke-linecap="round"></line><line opacity="1" x1="21.5" y1="31.5" x2="22.5" y2="31.5" stroke-width="0.5" stroke="#00000f" stroke-linecap="round"></line><circle opacity="1" r="0.25" fill="#00000f" cx="22.5" cy="0.5"></circle><line opacity="1" x1="22.5" y1="2.5" x2="24.5" y2="2.5" stroke-width="0.5" stroke="#00000f" stroke-linecap="round"></line><line opacity="1" x1="22.5" y1="3.5" x2="24.5" y2="3.5" stroke-width="0.5" stroke="#00000f" stroke-linecap="round"></line><circle opacity="1" r="0.25" fill="#00000f" cx="22.5" cy="6.5"></circle><line opacity="1" x1="22.5" y1="7.5" x2="23.5" y2="7.5" stroke-width="0.5" stroke="#00000f" stroke-linecap="round"></line><circle opacity="1" r="0.25" fill="#00000f" cx="22.5" cy="13.5"></circle><line opacity="1" x1="22.5" y1="17.5" x2="22.5" y2="18.5" stroke-width="0.5" stroke="#00000f" stroke-linecap="round"></line><circle opacity="1" r="0.25" fill="#00000f" cx="22.5" cy="20.5"></circle><line opacity="1" x1="22.5" y1="22.5" x2="23.5" y2="22.5" stroke-width="0.5" stroke="#00000f" stroke-linecap="round"></line><circle opacity="1" r="0.25" fill="#00000f" cx="22.5" cy="28.5"></circle><circle opacity="1" r="0.25" fill="#00000f" cx="23.5" cy="1.5"></circle><line opacity="1" x1="23.5" y1="5.5" x2="24.5" y2="5.5" stroke-width="0.5" stroke="#00000f" stroke-linecap="round"></line><line opacity="1" x1="23.5" y1="10.5" x2="23.5" y2="13.5" stroke-width="0.5" stroke="#00000f" stroke-linecap="round"></line><circle opacity="1" r="0.25" fill="#00000f" cx="23.5" cy="15.5"></circle><line opacity="1" x1="23.5" y1="17.5" x2="23.5" y2="18.5" stroke-width="0.5" stroke="#00000f" stroke-linecap="round"></line><circle opacity="1" r="0.25" fill="#00000f" cx="23.5" cy="20.5"></circle><line opacity="1" x1="23.5" y1="23.5" x2="24.5" y2="23.5" stroke-width="0.5" stroke="#00000f" stroke-linecap="round"></line><line opacity="1" x1="23.5" y1="24.5" x2="26.5" y2="24.5" stroke-width="0.5" stroke="#00000f" stroke-linecap="round"></line><circle opacity="1" r="0.25" fill="#00000f" cx="24.5" cy="0.5"></circle><circle opacity="1" r="0.25" fill="#00000f" cx="24.5" cy="4.5"></circle><circle opacity="1" r="0.25" fill="#00000f" cx="24.5" cy="6.5"></circle><circle fill="#00000f" cx="24.5" cy="11.5" r="0.25" opacity="1"></circle><circle opacity="1" r="0.25" fill="#00000f" cx="24.5" cy="13.5"></circle><line opacity="1" x1="24.5" y1="16.5" x2="24.5" y2="17.5" stroke-width="0.5" stroke="#00000f" stroke-linecap="round"></line><circle opacity="1" r="0.25" fill="#00000f" cx="24.5" cy="20.5"></circle><circle opacity="1" r="0.25" fill="#00000f" cx="24.5" cy="25.5"></circle><circle opacity="1" r="0.25" fill="#00000f" cx="24.5" cy="26.5"></circle><circle opacity="1" r="0.25" fill="#00000f" cx="24.5" cy="27.5"></circle><line opacity="1" x1="24.5" y1="28.5" x2="27.5" y2="28.5" stroke-width="0.5" stroke="#00000f" stroke-linecap="round"></line><circle opacity="1" r="0.25" fill="#00000f" cx="25.5" cy="8.5"></circle><circle opacity="1" r="0.25" fill="#00000f" cx="25.5" cy="10.5"></circle><line opacity="1" x1="25.5" y1="13.5" x2="25.5" y2="14.5" stroke-width="0.5" stroke="#00000f" stroke-linecap="round"></line><line opacity="1" x1="25.5" y1="16.5" x2="25.5" y2="18.5" stroke-width="0.5" stroke="#00000f" stroke-linecap="round"></line><circle opacity="1" r="0.25" fill="#00000f" cx="25.5" cy="21.5"></circle><circle opacity="1" r="0.25" fill="#00000f" cx="25.5" cy="29.5"></circle><line opacity="1" x1="25.5" y1="31.5" x2="27.5" y2="31.5" stroke-width="0.5" stroke="#00000f" stroke-linecap="round"></line><line opacity="1" x1="25.5" y1="32.5" x2="26.5" y2="32.5" stroke-width="0.5" stroke="#00000f" stroke-linecap="round"></line><line opacity="1" x1="26.5" y1="9.5" x2="26.5" y2="12.5" stroke-width="0.5" stroke="#00000f" stroke-linecap="round"></line><line opacity="1" x1="26.5" y1="17.5" x2="26.5" y2="18.5" stroke-width="0.5" stroke="#00000f" stroke-linecap="round"></line><line opacity="1" x1="26.5" y1="21.5" x2="26.5" y2="23.5" stroke-width="0.5" stroke="#00000f" stroke-linecap="round"></line><circle opacity="1" r="0.25" fill="#00000f" cx="26.5" cy="26.5"></circle><circle opacity="1" r="0.25" fill="#00000f" cx="26.5" cy="30.5"></circle><circle opacity="1" r="0.25" fill="#00000f" cx="27.5" cy="9.5"></circle><line opacity="1" x1="27.5" y1="11.5" x2="27.5" y2="12.5" stroke-width="0.5" stroke="#00000f" stroke-linecap="round"></line><line opacity="1" x1="27.5" y1="14.5" x2="27.5" y2="17.5" stroke-width="0.5" stroke="#00000f" stroke-linecap="round"></line><line opacity="1" x1="27.5" y1="19.5" x2="27.5" y2="21.5" stroke-width="0.5" stroke="#00000f" stroke-linecap="round"></line><circle opacity="1" r="0.25" fill="#00000f" cx="27.5" cy="24.5"></circle><circle opacity="1" r="0.25" fill="#00000f" cx="28.5" cy="8.5"></circle><circle fill="#00000f" cx="28.5" cy="10.5" r="0.25" opacity="1"></circle><line opacity="1" x1="28.5" y1="13.5" x2="28.5" y2="14.5" stroke-width="0.5" stroke="#00000f" stroke-linecap="round"></line><line opacity="1" x1="28.5" y1="16.5" x2="28.5" y2="17.5" stroke-width="0.5" stroke="#00000f" stroke-linecap="round"></line><circle opacity="1" r="0.25" fill="#00000f" cx="28.5" cy="19.5"></circle><line opacity="1" x1="28.5" y1="21.5" x2="28.5" y2="22.5" stroke-width="0.5" stroke="#00000f" stroke-linecap="round"></line><line opacity="1" x1="28.5" y1="24.5" x2="28.5" y2="27.5" stroke-width="0.5" stroke="#00000f" stroke-linecap="round"></line><line opacity="1" x1="28.5" y1="28.5" x2="31.5" y2="28.5" stroke-width="0.5" stroke="#00000f" stroke-linecap="round"></line><circle opacity="1" r="0.25" fill="#00000f" cx="28.5" cy="29.5"></circle><circle fill="#00000f" cx="29.5" cy="3.5" r="1.5"></circle><circle r="3" fill="none" cx="29.5" cy="3.5" stroke-width="0.15" stroke-dasharray="0.5,0.5" stroke="#00000f"></circle><circle fill="#00000f" cx="32.5" cy="3.5" r="0.5"></circle><circle r="0.5" fill="#00000f" cx="26.5" cy="3.5"></circle><circle fill="#00000f" cx="29.5" cy="6.5" r="0.5"></circle><circle r="0.5" fill="#00000f" cx="29.5" cy="0.5"></circle><circle opacity="1" r="0.25" fill="#00000f" cx="29.5" cy="11.5"></circle><circle opacity="1" r="0.25" fill="#00000f" cx="29.5" cy="14.5"></circle><line opacity="1" x1="29.5" y1="16.5" x2="29.5" y2="18.5" stroke-width="0.5" stroke="#00000f" stroke-linecap="round"></line><circle opacity="1" r="0.25" fill="#00000f" cx="29.5" cy="22.5"></circle><circle opacity="1" r="0.25" fill="#00000f" cx="29.5" cy="30.5"></circle><line opacity="1" x1="29.5" y1="32.5" x2="30.5" y2="32.5" stroke-width="0.5" stroke="#00000f" stroke-linecap="round"></line><line opacity="1" x1="30.5" y1="8.5" x2="30.5" y2="11.5" stroke-width="0.5" stroke="#00000f" stroke-linecap="round"></line><line opacity="1" x1="30.5" y1="13.5" x2="30.5" y2="14.5" stroke-width="0.5" stroke="#00000f" stroke-linecap="round"></line><circle opacity="1" r="0.25" fill="#00000f" cx="30.5" cy="16.5"></circle><circle opacity="1" r="0.25" fill="#00000f" cx="30.5" cy="21.5"></circle><line opacity="1" x1="31.5" y1="11.5" x2="31.5" y2="13.5" stroke-width="0.5" stroke="#00000f" stroke-linecap="round"></line><line opacity="1" x1="31.5" y1="15.5" x2="31.5" y2="17.5" stroke-width="0.5" stroke="#00000f" stroke-linecap="round"></line><line opacity="1" x1="31.5" y1="21.5" x2="31.5" y2="24.5" stroke-width="0.5" stroke="#00000f" stroke-linecap="round"></line><circle opacity="1" r="0.25" fill="#00000f" cx="31.5" cy="26.5"></circle><line opacity="1" x1="31.5" y1="31.5" x2="32.5" y2="31.5" stroke-width="0.5" stroke="#00000f" stroke-linecap="round"></line><line opacity="1" x1="32.5" y1="8.5" x2="32.5" y2="10.5" stroke-width="0.5" stroke="#00000f" stroke-linecap="round"></line><circle opacity="1" r="0.25" fill="#00000f" cx="32.5" cy="12.5"></circle><circle opacity="1" r="0.25" fill="#00000f" cx="32.5" cy="17.5"></circle><line opacity="1" x1="32.5" y1="20.5" x2="32.5" y2="21.5" stroke-width="0.5" stroke="#00000f" stroke-linecap="round"></line><line opacity="1" x1="32.5" y1="24.5" x2="32.5" y2="26.5" stroke-width="0.5" stroke="#00000f" stroke-linecap="round"></line><line opacity="1" x1="32.5" y1="28.5" x2="32.5" y2="29.5" stroke-width="0.5" stroke="#00000f" stroke-linecap="round"></line><circle opacity="1" r="0.25" fill="#00000f" cx="32.5" cy="32.5"></circle></svg>